<svg xmlns="http://www.w3.org/2000/svg" viewBox="0 0 240 240"><path d="M 240 120L 239.83588737172784 164.25168584705037L 239.34264430256462 178.31059445571958L 238.5175048936711 188.42133992495957L 237.35568607511226 196.51980903462993L 235.8501077333354 203.3182232476458L 233.99095676547404 209.167137935045L 231.7650400458852 214.2670055598816L 229.1548359277428 218.7435567441446L 226.13709441306725 222.6807304776413L 222.6807304776413 226.13709441306725L 218.7435567441446 229.1548359277428L 214.2670055598816 231.7650400458852L 209.16713793504502 233.99095676547404L 203.3182232476458 235.8501077333354L 196.51980903462996 237.35568607511226L 188.4213399249596 238.5175048936711L 178.31059445571958 239.34264430256462L 164.2516858470504 239.83588737172784L 120.00003926210574 240L 119.99996073789426 240L 75.74831415294962 239.83588737172784L 61.68940554428041 239.34264430256462L 51.5786600750404 238.5175048936711L 43.48019096537004 237.35568607511226L 36.68177675235421 235.8501077333354L 30.83286206495498 233.99095676547404L 25.732994440118404 231.7650400458852L 21.256443255855388 229.1548359277428L 17.319269522358695 226.13709441306725L 13.862905586932754 222.6807304776413L 10.845164072257205 218.7435567441446L 8.234959954114785 214.2670055598816L 6.009043234525947 209.167137935045L 4.149892266664608 203.3182232476458L 2.644313924887726 196.51980903462993L 1.482495106328912 188.42133992495957L 0.6573556974353636 178.31059445571958L 0.16411262827215012 164.25168584705037L 0 120L 0 120L 0.16411262827215012 75.74831415294963L 0.6573556974353636 61.689405544280426L 1.482495106328912 51.57866007504042L 2.644313924887726 43.480190965370056L 4.149892266664608 36.68177675235421L 6.009043234525947 30.83286206495501L 8.234959954114785 25.732994440118404L 10.845164072257205 21.256443255855388L 13.862905586932754 17.319269522358695L 17.319269522358695 13.862905586932754L 21.256443255855388 10.845164072257205L 25.732994440118404 8.234959954114785L 30.83286206495498 6.0090432345259615L 36.68177675235421 4.149892266664608L 43.48019096537004 2.644313924887726L 51.5786600750404 1.482495106328912L 61.68940554428041 0.6573556974353636L 75.74831415294962 0.16411262827215012L 119.99996073789426 0L 120.00003926210574 0L 164.2516858470504 0.16411262827215012L 178.31059445571958 0.6573556974353636L 188.4213399249596 1.482495106328912L 196.51980903462996 2.644313924887726L 203.3182232476458 4.149892266664608L 209.16713793504502 6.0090432345259615L 214.2670055598816 8.234959954114785L 218.7435567441446 10.845164072257205L 222.6807304776413 13.862905586932754L 226.13709441306725 17.319269522358695L 229.1548359277428 21.256443255855388L 231.7650400458852 25.732994440118404L 233.99095676547404 30.83286206495501L 235.8501077333354 36.68177675235421L 237.35568607511226 43.480190965370056L 238.5175048936711 51.57866007504042L 239.34264430256462 61.689405544280426L 239.83588737172784 75.74831415294963L 240 120" fill="#d461b0" /><path d="M 104.609375 177.7734375L 40.625 177.7734375L 40.625 62.2265625L 54.21875 62.2265625L 54.21875 165.7421875L 105.078125 165.7421875L 104.609375 177.7734375zM 184.921875 62.2265625L 184.921875 62.2265625L 199.375 62.2265625L 157.421875 177.7734375L 143.359375 177.7734375L 101.5625 62.2265625L 116.015625 62.2265625L 141.71875 135.5078125Q 146.71875,149.8046875 150.390625,162.4609375L 150.390625 162.4609375Q 151.5625,156.6015625 159.140625,135.2734375L 159.140625 135.2734375Q 171.328125,100.3515625 184.921875,62.2265625z" fill="#ffffff" /></svg>